<svg width="368" height="97" viewBox="0 0 368 97" fill="none" xmlns="http://www.w3.org/2000/svg">
<path d="M3.76 93.464C3.58933 94.232 3.46133 94.616 3.376 94.616C3.20533 94.5307 3.07733 94.36 2.992 94.104C2.992 93.848 2.992 93.6347 2.992 93.464C2.736 89.5387 2.992 85.7413 3.76 82.072C4.528 78.3173 5.68 74.648 7.216 71.064C8.83733 67.48 10.7147 64.024 12.848 60.696C15.0667 57.2827 17.4133 53.9973 19.888 50.84L22.704 47.256C19.2053 39.4053 15.7493 31.8107 12.336 24.472C9.008 17.048 5.33867 10.648 1.328 5.272C1.072 4.93066 0.944 4.67466 0.944 4.504C1.02933 4.33333 1.2 4.33333 1.456 4.504C1.712 4.67466 1.92533 4.80266 2.096 4.88799C4.74133 7.02133 7.13067 9.53866 9.264 12.44C11.4827 15.3413 13.5307 18.4987 15.408 21.912C17.2853 25.24 19.0347 28.7813 20.656 32.536C22.2773 36.2053 23.8987 39.9173 25.52 43.672L27.696 40.984C27.2693 40.1307 26.5867 38.808 25.648 37.016C24.7093 35.1387 23.6 33.048 22.32 30.744C21.04 28.44 19.6747 26.008 18.224 23.448C16.8587 20.888 15.4507 18.4987 14 16.28C12.5493 13.976 11.184 11.928 9.904 10.136C8.624 8.344 7.51467 7.064 6.576 6.296C5.89333 5.78399 5.68 5.44266 5.936 5.272C6.10667 5.18666 6.49067 5.22933 7.088 5.39999C8.79467 6.08266 10.5867 7.27733 12.464 8.98399C14.4267 10.6907 16.2613 12.6107 17.968 14.744C19.76 16.8773 21.3813 19.096 22.832 21.4C24.2827 23.704 25.4347 25.7947 26.288 27.672L30.768 37.272L32.176 35.736C30.4693 31.896 28.6347 28.0133 26.672 24.088C24.7093 20.1627 22.3627 16.3227 19.632 12.568C19.376 12.1413 19.2053 11.928 19.12 11.928C19.0347 11.928 19.0773 11.8427 19.248 11.672C19.248 11.672 19.5893 11.8427 20.272 12.184C22.6613 13.8053 25.136 16.4933 27.696 20.248C30.256 23.9173 32.688 27.9707 34.992 32.408C39.344 27.288 43.696 21.9973 48.048 16.536C52.4 10.9893 55.9413 5.74133 58.672 0.791992C58.7573 0.621328 58.8427 0.450663 58.928 0.279999C59.0133 0.109329 59.184 0.109329 59.44 0.279999C59.5253 0.365331 59.5253 0.535995 59.44 0.791992C59.44 1.04799 59.44 1.21866 59.44 1.30399C58.16 5.99733 56.112 10.648 53.296 15.256C50.48 19.7787 47.3227 24.3013 43.824 28.824C40.3253 33.2613 36.656 37.6987 32.816 42.136C28.976 46.488 25.392 50.84 22.064 55.192C20.016 57.9227 17.968 60.8667 15.92 64.024C13.9573 67.096 12.1653 70.296 10.544 73.624C8.92267 76.8667 7.51467 80.1947 6.32 83.608C5.12533 86.936 4.272 90.2213 3.76 93.464ZM62.896 94.488C63.408 94.744 63.664 94.9147 63.664 95C63.664 95 63.3653 95 62.768 95C59.3547 94.488 56.1547 93.3787 53.168 91.672C50.2667 89.88 47.536 87.704 44.976 85.144C42.5013 82.584 40.1547 79.7253 37.936 76.568C35.8027 73.3253 33.84 70.04 32.048 66.712C29.3173 69.9547 26.4587 73.1547 23.472 76.312C20.4853 79.384 17.7973 82.0293 15.408 84.248C14.9813 84.6747 14.5973 85.0587 14.256 85.4C14 85.7413 13.7867 85.8693 13.616 85.784C13.4453 85.6987 13.488 85.4 13.744 84.888C14.0853 84.376 14.3413 83.9067 14.512 83.48C16.1333 80.3227 17.968 77.208 20.016 74.136C22.1493 71.064 24.368 68.0773 26.672 65.176C29.0613 62.1893 31.4933 59.2453 33.968 56.344C36.4427 53.4427 38.8747 50.5413 41.264 47.64C44.2507 43.9707 47.4933 39.8747 50.992 35.352C54.4907 30.8293 57.52 26.1787 60.08 21.4C60.336 20.8027 60.5493 20.504 60.72 20.504C60.8907 20.504 60.9333 20.7173 60.848 21.144C60.7627 21.4853 60.72 21.784 60.72 22.04C60.5493 23.832 59.9093 25.9227 58.8 28.312C57.6907 30.7013 56.3253 33.2187 54.704 35.864C53.168 38.424 51.4613 41.0693 49.584 43.8C47.792 46.4453 46.0427 48.92 44.336 51.224L45.488 53.784C47.536 58.3067 49.6267 63 51.76 67.864C53.8933 72.728 55.6853 77.08 57.136 80.92C57.3067 81.3467 57.4347 81.816 57.52 82.328C57.6907 82.7547 57.6907 83.0107 57.52 83.096C57.4347 83.096 57.2213 82.9253 56.88 82.584C56.5387 82.1573 56.1973 81.7307 55.856 81.304C52.8693 77.2933 50.1813 73.112 47.792 68.76C45.488 64.408 43.2267 59.928 41.008 55.32C39.984 56.6 38.96 57.9227 37.936 59.288C36.912 60.568 35.888 61.8907 34.864 63.256C36.4853 66.4133 38.32 69.5707 40.368 72.728C42.416 75.8 44.6347 78.744 47.024 81.56C49.4133 84.2907 51.9307 86.808 54.576 89.112C57.3067 91.3307 60.08 93.1227 62.896 94.488ZM49.2 34.328C45.872 38.5947 42.2027 42.904 38.192 47.256C34.1813 51.5227 30.256 55.576 26.416 59.416C26.2453 59.5013 25.904 59.8427 25.392 60.44C24.88 60.952 24.5387 61.1227 24.368 60.952C24.1973 60.8667 24.24 60.44 24.496 59.672C24.8373 58.904 25.136 58.3493 25.392 58.008C25.9893 56.984 26.8427 55.704 27.952 54.168C29.0613 52.5467 30.2133 50.9253 31.408 49.304C32.688 47.5973 33.8827 45.976 34.992 44.44C36.1867 42.8187 37.168 41.5387 37.936 40.6C39.8987 38.04 42.032 35.1813 44.336 32.024C46.7253 28.8667 48.944 25.7093 50.992 22.552C53.1253 19.3947 55.0027 16.408 56.624 13.592C58.3307 10.776 59.4827 8.51466 60.08 6.808C60.336 5.86933 60.5067 5.39999 60.592 5.39999C60.6773 5.39999 60.7627 5.57066 60.848 5.91199C61.0187 6.168 61.104 6.50933 61.104 6.936C61.1893 8.81333 60.848 11.032 60.08 13.592C59.312 16.0667 58.288 18.584 57.008 21.144C55.8133 23.704 54.4907 26.1787 53.04 28.568C51.6747 30.872 50.3947 32.792 49.2 34.328ZM10.672 86.296C9.98933 88.0027 9.34933 89.5813 8.752 91.032C8.24 92.4827 7.77067 93.8053 7.344 95C7.25867 95.1707 7.088 95.384 6.832 95.64C6.66133 95.896 6.49067 95.6827 6.32 95C6.064 93.5493 6.064 91.9707 6.32 90.264C6.576 88.5573 7.30133 86.3387 8.496 83.608C8.92267 82.584 9.47733 81.432 10.16 80.152C10.8427 78.7867 11.568 77.5493 12.336 76.44C13.104 75.2453 13.7867 74.264 14.384 73.496C15.0667 72.728 15.5787 72.472 15.92 72.728C15.92 72.8133 15.8347 73.112 15.664 73.624C15.4933 74.136 15.28 74.6907 15.024 75.288C14.8533 75.8853 14.64 76.4827 14.384 77.08C14.2133 77.592 14.0853 77.9333 14 78.104C13.4027 79.7253 12.848 81.1333 12.336 82.328C11.824 83.5227 11.2693 84.8453 10.672 86.296ZM57.648 86.04C59.0133 87.32 60.336 88.5147 61.616 89.624C62.9813 90.648 64.3893 91.6293 65.84 92.568C66.0107 92.7387 66.224 92.952 66.48 93.208C66.736 93.3787 66.8213 93.5067 66.736 93.592C66.5653 93.7627 66.3093 93.848 65.968 93.848C65.712 93.7627 65.3707 93.6773 64.944 93.592C64.0907 93.336 63.3227 93.1227 62.64 92.952C61.9573 92.7813 61.232 92.5253 60.464 92.184C59.7813 91.7573 59.0133 91.2453 58.16 90.648C57.392 90.0507 56.496 89.24 55.472 88.216C54.6187 87.3627 53.6373 86.296 52.528 85.016C51.504 83.6507 50.5227 82.328 49.584 81.048C48.7307 79.6827 48.048 78.488 47.536 77.464C47.024 76.44 46.896 75.8427 47.152 75.672C47.2373 75.5867 47.4933 75.7147 47.92 76.056C48.3467 76.3973 48.7733 76.824 49.2 77.336C49.6267 77.7627 50.0107 78.1893 50.352 78.616C50.7787 79.0427 51.0773 79.3413 51.248 79.512C52.4427 80.792 53.552 81.944 54.576 82.968C55.6 83.992 56.624 85.016 57.648 86.04Z" fill="#E1351F"/>
<path d="M81.3475 96V4H83.82V93.815H114.266V96H81.3475ZM86.3213 91.6587V4H88.7938V89.4737H114.266V91.6587H86.3213ZM91.295 87.3175V4H93.7675V85.1325H114.266V87.3175H91.295ZM139.744 96.9775C132.748 96.9775 127.746 95.4921 124.737 92.5212C121.747 89.5312 120.175 84.6821 120.022 77.9737C119.907 72.4921 119.82 67.4417 119.763 62.8225C119.725 58.1842 119.705 53.7183 119.705 49.425C119.725 45.1125 119.753 40.7425 119.792 36.315C119.849 31.8683 119.926 27.0958 120.022 21.9975C120.175 15.27 121.756 10.4304 124.765 7.47874C127.775 4.50791 132.767 3.02249 139.744 3.02249C146.625 3.02249 151.56 4.50791 154.55 7.47874C157.56 10.4496 159.16 15.2892 159.352 21.9975C159.486 27.2108 159.582 32.1462 159.639 36.8037C159.716 41.4612 159.754 46.0037 159.754 50.4312C159.754 54.8396 159.716 59.2958 159.639 63.8C159.582 68.3042 159.486 73.0287 159.352 77.9737C159.141 84.6437 157.55 89.4833 154.579 92.4925C151.608 95.4825 146.663 96.9775 139.744 96.9775ZM139.744 94.9362C145.801 94.9362 150.123 93.5946 152.71 90.9112C155.317 88.2279 156.707 83.8867 156.879 77.8875C156.994 72.9617 157.08 68.2658 157.138 63.8C157.215 59.315 157.253 54.8779 157.253 50.4887C157.253 46.0996 157.224 41.5858 157.167 36.9475C157.109 32.29 157.013 27.3354 156.879 22.0837C156.707 16.0462 155.317 11.705 152.71 9.06C150.104 6.39583 145.782 5.06375 139.744 5.06375C133.534 5.06375 129.145 6.40541 126.577 9.08874C124.008 11.7721 122.657 16.0942 122.523 22.055C122.408 27.5175 122.322 32.5679 122.264 37.2062C122.207 41.8446 122.178 46.32 122.178 50.6325C122.197 54.9258 122.226 59.2862 122.264 63.7137C122.322 68.1412 122.408 72.8754 122.523 77.9162C122.657 83.8771 124.008 88.2087 126.577 90.9112C129.145 93.5946 133.534 94.9362 139.744 94.9362ZM139.744 92.9237C134.473 92.9237 130.726 91.7546 128.503 89.4162C126.299 87.0587 125.13 83.2062 124.995 77.8587C124.88 72.3962 124.794 67.3458 124.737 62.7075C124.698 58.0692 124.679 53.6033 124.679 49.31C124.679 45.0167 124.708 40.6658 124.765 36.2575C124.823 31.8492 124.9 27.1342 124.995 22.1125C125.11 16.7458 126.28 12.9029 128.503 10.5837C130.745 8.24541 134.492 7.07625 139.744 7.07625C144.977 7.07625 148.685 8.27416 150.87 10.67C153.055 13.0467 154.225 16.8704 154.378 22.1412C154.531 27.6612 154.637 32.7404 154.694 37.3787C154.752 42.0171 154.78 46.4733 154.78 50.7475C154.78 55.0217 154.742 59.3533 154.665 63.7425C154.608 68.1125 154.512 72.7987 154.378 77.8012C154.225 83.0337 153.065 86.8671 150.899 89.3012C148.752 91.7162 145.034 92.9237 139.744 92.9237ZM139.744 90.9112C144.114 90.9112 147.2 89.8667 149.002 87.7775C150.803 85.6883 151.771 82.3437 151.905 77.7437C152.04 72.3771 152.135 67.4417 152.193 62.9375C152.27 58.4333 152.308 54.0633 152.308 49.8275C152.308 45.5917 152.27 41.2504 152.193 36.8037C152.135 32.3571 152.04 27.5079 151.905 22.2562C151.771 17.7521 150.832 14.4362 149.088 12.3087C147.363 10.1621 144.248 9.08874 139.744 9.08874C135.297 9.08874 132.164 10.1237 130.343 12.1937C128.541 14.2446 127.592 17.5604 127.497 22.1412C127.382 27.4312 127.295 32.3571 127.238 36.9187C127.18 41.4804 127.152 45.9175 127.152 50.23C127.171 54.5425 127.2 58.9412 127.238 63.4262C127.295 67.8921 127.382 72.6837 127.497 77.8012C127.592 82.5162 128.57 85.88 130.429 87.8925C132.307 89.905 135.412 90.9112 139.744 90.9112ZM139.744 88.8987C136.179 88.8987 133.678 88.0267 132.24 86.2825C130.803 84.5192 130.046 81.6825 129.969 77.7725C129.835 70.47 129.739 63.8767 129.682 57.9925C129.643 52.1083 129.653 46.3392 129.71 40.685C129.768 35.0117 129.854 28.8496 129.969 22.1987C130.046 18.2696 130.803 15.4425 132.24 13.7175C133.678 11.9733 136.179 11.1012 139.744 11.1012C143.347 11.1012 145.839 12.0212 147.219 13.8612C148.599 15.6821 149.327 18.4996 149.404 22.3137C149.538 27.7954 149.634 32.7979 149.692 37.3212C149.768 41.8254 149.807 46.1667 149.807 50.345C149.807 54.5233 149.768 58.8167 149.692 63.225C149.634 67.6142 149.538 72.425 149.404 77.6575C149.308 81.5292 148.561 84.3754 147.162 86.1962C145.762 87.9979 143.29 88.8987 139.744 88.8987ZM139.744 86.8862C142.427 86.8862 144.267 86.1292 145.264 84.615C146.28 83.1008 146.836 80.7625 146.932 77.6C147.066 72.2142 147.162 67.2979 147.219 62.8513C147.296 58.3854 147.334 54.0729 147.334 49.9137C147.334 45.7354 147.296 41.4421 147.219 37.0337C147.162 32.6062 147.066 27.7283 146.932 22.4C146.836 19.065 146.261 16.6883 145.207 15.27C144.172 13.8325 142.351 13.1137 139.744 13.1137C137.137 13.1137 135.288 13.8037 134.195 15.1837C133.103 16.5637 132.528 18.9212 132.47 22.2562C132.336 29.3096 132.24 35.7496 132.183 41.5762C132.125 47.4029 132.125 53.1817 132.183 58.9125C132.24 64.6433 132.336 70.9108 132.47 77.715C132.528 80.9158 133.074 83.2446 134.109 84.7012C135.163 86.1579 137.042 86.8862 139.744 86.8862ZM176.444 96L164.427 4H166.899L178.629 93.9875H195.017L206.718 4H209.191L197.173 96H176.444ZM180.239 91.975L176.099 53.8525L169.429 4H171.988L178.486 52.645L182.453 89.9337H191.164L195.132 52.645L201.629 4H204.188L197.489 53.8525L193.378 91.975H180.239ZM184.149 87.9212L180.642 51.7825L174.691 4H177.163L182.827 50.8912L186.076 85.9087H187.542L190.762 50.8912L196.426 4H198.898L192.976 51.7825L189.468 87.9212H184.149ZM216.338 96V4H249.199V6.185H218.81V93.815H249.199V96H216.338ZM226.285 87.3175V52.7025H248.049V54.8875H228.758V85.1325H249.199V87.3175H226.285ZM221.311 91.6587V8.34124H249.199V10.5262H223.784V48.3612H248.049V50.5462H223.784V89.4737H249.199V91.6587H221.311ZM226.285 46.205V12.6825H249.199V14.8675H228.758V44.02H248.049V46.205H226.285ZM277.518 96L288.788 4H309.488L320.758 96H318.228L307.303 6.04124H290.973L280.048 96H277.518ZM287.551 96L290.541 70.6425H307.763L310.753 96H308.194L305.75 72.655H292.554L290.11 96H287.551ZM282.491 96L292.496 8.11125H305.808L315.784 96H313.225L310.12 68.63H288.155L285.05 96H282.491ZM288.328 66.6175H309.89L307.159 40.9437L303.623 10.1237H294.653L291.059 40.9437L288.328 66.6175ZM291.116 64.5762L293.445 40.9437L296.378 12.05H301.926L304.916 40.9437L307.159 64.5762H291.116ZM293.704 62.5637H304.571L302.616 40.9437L300.058 14.0912H298.246L295.688 40.9437L293.704 62.5637ZM334.457 96L322.44 4H324.912L336.642 93.9875H353.03L364.731 4H367.203L355.186 96H334.457ZM338.252 91.975L334.112 53.8525L327.442 4H330.001L336.498 52.645L340.466 89.9337H349.177L353.145 52.645L359.642 4H362.201L355.502 53.8525L351.391 91.975H338.252ZM342.162 87.9212L338.655 51.7825L332.703 4H335.176L340.84 50.8912L344.088 85.9087H345.555L348.775 50.8912L354.438 4H356.911L350.988 51.7825L347.481 87.9212H342.162Z" fill="#E1351F"/>
</svg>
