<svg width="277" height="118" viewBox="0 0 277 118" fill="none" xmlns="http://www.w3.org/2000/svg">
<path d="M38.632 13.584C38.9733 13.6693 39.272 13.712 39.528 13.712C39.784 13.6267 40.424 13.712 41.448 13.968C42.472 14.224 43.24 14.6507 43.752 15.248C44.3493 15.76 44.904 16.1013 45.416 16.272C45.928 16.3573 46.5253 16.6133 47.208 17.04C47.976 17.3813 48.7013 17.5947 49.384 17.68C50.0667 17.68 50.5787 17.8933 50.92 18.32C51.3467 18.7467 52.072 19.088 53.096 19.344C53.4373 20.112 53.736 20.6667 53.992 21.008C54.3333 21.264 54.4613 22.0747 54.376 23.44C54.376 24.8053 54.504 25.9147 54.76 26.768C55.1013 27.536 55.1013 28.1333 54.76 28.56C54.4187 28.9867 54.1627 29.8827 53.992 31.248C53.9067 32.528 53.9067 33.808 53.992 35.088C54.1627 36.2827 54.12 37.4773 53.864 38.672C53.6933 39.8667 53.48 40.6773 53.224 41.104C52.968 41.5307 52.8827 42.0853 52.968 42.768C53.0533 43.3653 52.7547 44.3467 52.072 45.712C51.4747 46.992 51.1333 48.144 51.048 49.168C51.816 50.3627 52.4133 51.0453 52.84 51.216C53.352 51.3867 53.608 51.8987 53.608 52.752C53.6933 53.6053 54.2053 54.9707 55.144 56.848C56.0827 58.64 57.192 60.56 58.472 62.608C59.8373 64.5707 61.16 66.8747 62.44 69.52C63.8053 72.08 65.4693 74.2987 67.432 76.176C69.3947 77.968 71.2293 79.9307 72.936 82.064C74.6427 84.1973 75.496 85.52 75.496 86.032C75.5813 86.544 75.6667 87.056 75.752 87.568L76.904 88.336C77.2453 89.104 77.544 89.7013 77.8 90.128C78.1413 90.4693 78.5253 90.8107 78.952 91.152C79.3787 91.4933 79.592 91.8773 79.592 92.304C79.592 92.6453 79.7627 93.1147 80.104 93.712C81.2133 94.6507 82.024 95.3333 82.536 95.76C83.1333 96.1013 83.944 96.528 84.968 97.04C86.0773 97.552 87.656 98.1493 89.704 98.832C91.752 99.4293 93.2453 99.728 94.184 99.728L94.696 100.112L95.208 99.728H96.36C96.1893 99.8133 95.7627 100.112 95.08 100.624C94.4827 101.051 93.928 101.264 93.416 101.264C92.9893 101.264 92.5627 101.435 92.136 101.776C91.7947 102.117 91.112 102.416 90.088 102.672C89.064 102.928 88.04 103.056 87.016 103.056C86.0773 102.971 85.1387 103.056 84.2 103.312C83.2613 103.483 82.0667 103.483 80.616 103.312C79.2507 103.056 78.0987 102.971 77.16 103.056C76.2213 103.141 75.5813 103.312 75.24 103.568C74.984 103.739 74.4293 103.952 73.576 104.208C73.4907 104.891 73.2347 105.403 72.808 105.744C69.736 104.72 67.176 103.013 65.128 100.624C63.592 98.4907 62.44 96.8267 61.672 95.632C60.904 94.352 59.368 92.6027 57.064 90.384C54.76 88.08 52.6267 85.4347 50.664 82.448C48.7013 79.4613 47.336 77.2427 46.568 75.792C45.8 74.256 44.6907 72.1653 43.24 69.52L42.088 68.88L40.808 70.8L40.424 71.056C39.7413 72.1653 39.3147 72.9333 39.144 73.36C38.9733 73.7867 38.6747 74.1707 38.248 74.512C37.9067 74.8533 37.608 75.3653 37.352 76.048C37.096 76.6453 36.712 77.2 36.2 77.712C35.688 78.224 35.2613 78.864 34.92 79.632C34.5787 80.3147 34.1093 80.9973 33.512 81.68C33 82.2773 32.3173 83.0453 31.464 83.984C30.6107 84.8373 29.9707 85.6053 29.544 86.288L27.88 87.568L25.704 90L24.808 90.128L20.072 95.12C18.7067 95.632 17.7253 96.016 17.128 96.272C16.5307 96.4427 15.848 96.9547 15.08 97.808C14.312 98.6613 13.3307 99.472 12.136 100.24C10.9413 100.923 9.96 101.307 9.192 101.392C8.424 101.392 7.74133 101.264 7.144 101.008C6.54667 100.752 5.864 100.667 5.096 100.752C4.41333 100.837 3.688 101.221 2.92 101.904C2.23733 102.587 1.55467 103.013 0.872001 103.184L3.56 100.624L11.112 93.584L17.256 86.16L18.024 85.52C19.816 82.6187 21.1387 80.656 21.992 79.632C22.9307 78.5227 23.7413 77.2427 24.424 75.792C25.1067 74.256 25.576 73.1893 25.832 72.592C26.088 71.9093 26.6853 70.5013 27.624 68.368C28.5627 66.1493 29.0747 64.5707 29.16 63.632C29.2453 62.608 29.6293 61.2853 30.312 59.664C30.9947 57.9573 31.592 55.9093 32.104 53.52C32.7013 51.0453 33.1707 49.3813 33.512 48.528C33.8533 47.5893 34.1093 46.5653 34.28 45.456C34.536 44.3467 35.0053 42.512 35.688 39.952C36.456 37.392 36.968 35.2587 37.224 33.552C37.48 31.76 37.8213 30.3093 38.248 29.2C38.6747 28.0053 38.9307 26.512 39.016 24.72C39.1013 22.928 38.9733 21.5627 38.632 20.624C38.2907 19.6853 37.9067 19.0453 37.48 18.704C37.1387 18.3627 36.5413 17.7653 35.688 16.912L34.408 16.784C34.664 16.016 34.92 15.12 35.176 14.096C36.3707 14.2667 37.5227 14.096 38.632 13.584ZM138.216 111.632L138.856 110.992C138.173 110.309 137.661 109.84 137.32 109.584C136.979 109.328 136.595 109.115 136.168 108.944C135.741 108.773 135.272 108.475 134.76 108.048C134.248 107.621 133.437 106.939 132.328 106C132.072 105.403 131.816 104.976 131.56 104.72C131.304 104.464 131.091 104.165 130.92 103.824C130.749 103.483 130.536 103.056 130.28 102.544C130.109 101.947 129.896 101.179 129.64 100.24C129.384 99.216 129.128 98.5333 128.872 98.192C128.616 97.7653 128.189 97.1253 127.592 96.272C127.336 96.272 126.952 96.272 126.44 96.272C125.928 96.1867 125.331 96.0587 124.648 95.888C124.051 95.7173 123.453 95.6747 122.856 95.76C122.259 95.8453 121.704 95.8453 121.192 95.76C120.765 95.6747 120.168 95.76 119.4 96.016L118.888 95.376L117.864 94.864C117.352 94.7787 117.053 94.4373 116.968 93.84L114.792 91.792C114.536 91.28 114.408 90.896 114.408 90.64C114.408 90.384 114.195 90.0853 113.768 89.744C113.427 89.4027 112.829 88.7627 111.976 87.824L111.08 87.184C109.885 85.648 109.075 84.624 108.648 84.112C108.221 83.5147 107.923 83.0453 107.752 82.704C107.581 82.2773 107.411 81.6373 107.24 80.784C107.752 80.6133 108.051 80.4427 108.136 80.272C108.307 80.1013 108.605 80.016 109.032 80.016C109.544 80.016 109.971 80.1867 110.312 80.528C110.653 80.784 111.037 80.9547 111.464 81.04C111.976 81.04 112.744 81.0827 113.768 81.168L114.28 81.936C114.707 81.7653 115.048 81.7653 115.304 81.936C115.645 82.1067 116.456 82.2773 117.736 82.448C119.016 82.6187 121.107 82.8747 124.008 83.216C126.909 83.472 129.043 83.5147 130.408 83.344C130.579 82.4053 130.792 81.5947 131.048 80.912C131.304 80.2293 131.517 79.0347 131.688 77.328C131.859 75.6213 131.859 74.7253 131.688 74.64C131.603 74.5547 131.517 74.4267 131.432 74.256C130.067 74.3413 129 74.4267 128.232 74.512C127.549 74.512 126.909 74.4693 126.312 74.384C125.8 74.2133 125.032 74.128 124.008 74.128C123.069 74.128 122.259 74.1707 121.576 74.256C120.893 74.3413 120.424 74.384 120.168 74.384C119.912 74.2987 119.613 74.128 119.272 73.872L118.888 72.976L116.584 71.568C116.072 70.7147 115.517 69.776 114.92 68.752L110.824 64.912C110.653 64.7413 110.525 64.5707 110.44 64.4C110.44 64.2293 110.227 63.8027 109.8 63.12C109.373 62.4373 109.16 61.8827 109.16 61.456C109.672 61.456 110.013 61.4133 110.184 61.328C110.355 61.1573 110.611 61.2 110.952 61.456C111.379 61.712 112.403 61.7547 114.024 61.584C115.645 61.4133 117.011 61.456 118.12 61.712C119.229 61.968 120.339 62.1813 121.448 62.352C122.557 62.4373 123.155 62.5227 123.24 62.608C123.325 62.608 123.496 62.6933 123.752 62.864C124.008 62.6933 124.221 62.608 124.392 62.608C124.648 62.5227 125.416 62.608 126.696 62.864C127.976 63.0347 129.213 63.2053 130.408 63.376C131.688 63.4613 133.523 63.5467 135.912 63.632C136.083 63.2907 136.211 63.0347 136.296 62.864C136.467 62.6933 136.552 62.48 136.552 62.224C136.552 61.968 136.424 61.712 136.168 61.456C135.997 61.2 135.784 60.816 135.528 60.304C135.272 60.304 135.101 60.304 135.016 60.304C135.016 60.2187 134.845 60.0907 134.504 59.92C134.163 59.7493 132.584 59.5787 129.768 59.408C126.952 59.2373 124.861 59.0667 123.496 58.896C122.131 58.64 120.851 58.4693 119.656 58.384C118.461 58.2987 117.437 58.1707 116.584 58C115.816 57.744 115.219 57.488 114.792 57.232C114.365 56.976 113.853 56.5067 113.256 55.824C113.085 55.4827 112.957 55.1413 112.872 54.8C112.787 54.4587 112.445 53.904 111.848 53.136C111.336 52.368 110.696 51.6427 109.928 50.96C109.245 50.2773 108.776 49.6373 108.52 49.04C108.264 48.4427 107.965 48.0587 107.624 47.888C107.283 47.632 107.112 47.3333 107.112 46.992C107.112 46.6507 107.112 46.3947 107.112 46.224C107.197 45.968 107.368 45.7547 107.624 45.584L108.136 45.456L108.392 44.56C108.904 44.56 109.245 44.5173 109.416 44.432C109.587 44.2613 110.227 44.688 111.336 45.712C112.445 46.6507 114.152 47.2907 116.456 47.632C118.845 47.888 122.045 48.2293 126.056 48.656C130.152 48.9973 132.797 49.168 133.992 49.168C135.272 49.0827 136.509 49.0827 137.704 49.168C137.619 47.7173 137.576 46.6933 137.576 46.096C137.576 45.4987 137.491 45.1147 137.32 44.944C137.235 44.7733 137.149 44.5173 137.064 44.176C136.637 44.0907 136.339 43.9627 136.168 43.792C135.997 43.6213 135.016 43.6213 133.224 43.792C131.517 43.8773 130.365 43.8773 129.768 43.792C129.171 43.6213 128.488 43.408 127.72 43.152C127.037 43.4933 126.44 43.792 125.928 44.048L125.416 43.664L125.288 44.048C124.264 44.3893 123.24 44.3467 122.216 43.92L121.32 43.024L120.296 42.384C119.699 41.616 119.315 41.104 119.144 40.848C118.973 40.5067 118.888 40.0373 118.888 39.44C118.888 38.8427 118.419 38.2027 117.48 37.52C116.627 36.752 115.816 36.0693 115.048 35.472C114.365 34.7893 113.896 34.0213 113.64 33.168C113.469 32.3147 113.213 31.76 112.872 31.504C112.616 31.248 112.317 30.864 111.976 30.352L112.616 29.456C120.04 31.5893 127.72 32.4 135.656 31.888C135.827 31.5467 135.912 31.2907 135.912 31.12C135.997 30.864 135.955 30.3947 135.784 29.712C135.699 28.944 135.699 28.176 135.784 27.408C135.869 26.64 135.827 26.2133 135.656 26.128C135.571 25.9573 135.485 25.7013 135.4 25.36C134.717 25.36 134.205 25.3173 133.864 25.232C133.608 25.1467 133.181 25.2747 132.584 25.616C131.987 25.9573 131.432 26.128 130.92 26.128C130.408 26.128 129.981 26.0427 129.64 25.872C129.384 25.7013 129 25.3173 128.488 24.72C128.061 24.1227 127.805 23.6107 127.72 23.184C127.635 22.7573 127.421 22.3307 127.08 21.904C126.739 21.4773 126.483 21.0507 126.312 20.624C126.227 20.1973 126.099 19.856 125.928 19.6C125.757 19.2587 125.672 19.0027 125.672 18.832L124.904 18.32C124.904 17.808 124.819 17.5093 124.648 17.424C124.477 17.2533 124.093 16.656 123.496 15.632C122.984 14.608 122.515 13.6693 122.088 12.816C121.661 11.8773 121.363 11.28 121.192 11.024C121.021 10.6827 120.851 10.1707 120.68 9.488C120.936 9.40266 121.192 9.44533 121.448 9.616C121.789 9.70133 122.899 10.0853 124.776 10.768C126.739 11.4507 128.659 12.0053 130.536 12.432C132.413 12.8587 133.693 13.072 134.376 13.072C134.376 12.048 134.376 11.28 134.376 10.768C134.461 10.256 134.419 9.65866 134.248 8.976C134.077 8.208 133.779 7.44 133.352 6.672C132.925 5.904 132.712 5.008 132.712 3.98399C132.712 2.87466 132.499 2.14933 132.072 1.808C131.731 1.46666 131.475 1.21066 131.304 1.03999C131.219 0.869329 131.176 0.698662 131.176 0.527992C131.859 0.527992 132.584 0.399994 133.352 0.143997L134.248 1.16799C135.784 1.59466 137.32 2.14933 138.856 2.83199C139.283 3.344 139.667 3.81333 140.008 4.24C140.349 4.66666 140.947 5.30666 141.8 6.16C142.739 7.01333 143.507 7.78133 144.104 8.464C144.701 9.06133 144.957 9.57333 144.872 9.99999C144.872 10.3413 144.957 10.6827 145.128 11.024C145.384 11.28 145.469 11.5787 145.384 11.92C145.384 12.2613 145.469 12.6453 145.64 13.072C145.811 13.4987 146.152 14.224 146.664 15.248C148.627 15.6747 150.419 15.9733 152.04 16.144C153.661 16.2293 155.24 16.3573 156.776 16.528C158.312 16.6987 159.763 16.8267 161.128 16.912C162.493 16.912 163.688 16.8693 164.712 16.784V17.296C164.115 17.7227 163.56 17.936 163.048 17.936C162.536 17.936 161.896 18.064 161.128 18.32C160.36 18.576 159.592 18.8747 158.824 19.216C158.056 19.5573 157.032 19.984 155.752 20.496C154.557 21.008 153.789 21.264 153.448 21.264C153.107 21.264 152.723 21.264 152.296 21.264L151.912 21.648C150.632 21.8187 149.437 22.2027 148.328 22.8C148.157 26.128 148.285 29.328 148.712 32.4C148.883 32.4853 149.053 32.5707 149.224 32.656C149.48 32.656 150.12 32.6987 151.144 32.784C152.253 32.8693 153.448 32.7413 154.728 32.4C156.008 32.0587 157.459 31.9733 159.08 32.144C160.701 32.2293 161.896 32.5707 162.664 33.168C163.517 33.7653 164.456 34.192 165.48 34.448C166.589 34.6187 167.272 34.8747 167.528 35.216C167.869 35.5573 168.339 35.8987 168.936 36.24L169.064 36.496L170.216 37.392C170.216 37.5627 170.216 37.7333 170.216 37.904C170.216 37.9893 170.387 38.2027 170.728 38.544C171.069 38.8 171.411 39.3547 171.752 40.208C172.093 41.0613 172.392 42.0427 172.648 43.152C172.904 44.2613 172.904 45.0293 172.648 45.456C172.477 45.7973 172.477 46.1813 172.648 46.608C172.819 46.9493 172.904 47.376 172.904 47.888C172.989 48.3147 172.989 48.7413 172.904 49.168C172.819 49.5093 172.733 50.064 172.648 50.832L172.904 51.216C177.597 51.216 182.12 50.2773 186.472 48.4L185.832 49.296C184.381 50.064 183.016 50.704 181.736 51.216V51.856L176.872 53.776L176.744 54.416C174.867 55.696 172.947 56.5067 170.984 56.848C170.813 56.9333 170.685 57.0187 170.6 57.104C170.515 57.1893 170.429 57.4027 170.344 57.744C170.259 58 170.003 58.3413 169.576 58.768C169.235 59.1093 169.064 59.4507 169.064 59.792C169.149 60.048 169.064 60.2613 168.808 60.432C168.552 60.6027 168.253 60.9867 167.912 61.584L168.424 61.84C167.315 62.608 166.547 63.2053 166.12 63.632C165.693 63.9733 165.267 64.1013 164.84 64.016C164.499 63.9307 164.115 64.0587 163.688 64.4C163.347 64.7413 163.005 64.912 162.664 64.912C162.323 64.912 161.981 65.0827 161.64 65.424C161.299 65.68 160.872 65.8933 160.36 66.064C159.933 66.2347 159.379 66.5333 158.696 66.96C158.099 67.3013 157.672 67.472 157.416 67.472L156.776 68.112C156.264 68.1973 155.624 68.4533 154.856 68.88C154.173 69.2213 153.576 69.4347 153.064 69.52C152.552 69.6053 152.083 69.7333 151.656 69.904C151.315 70.0747 150.931 70.16 150.504 70.16C150.077 70.16 149.523 70.3733 148.84 70.8C148.243 71.1413 147.731 71.2693 147.304 71.184C146.963 71.0987 146.749 71.1413 146.664 71.312C146.579 71.3973 146.365 71.5253 146.024 71.696L145.512 71.44L145.384 71.696L142.952 72.464C142.952 72.6347 142.909 72.8053 142.824 72.976C142.739 73.1467 142.739 73.488 142.824 74C142.909 74.512 142.995 74.896 143.08 75.152C143.251 75.3227 143.336 75.6213 143.336 76.048C143.421 76.4747 143.635 77.1573 143.976 78.096C143.976 78.1813 143.933 78.3093 143.848 78.48C143.763 78.5653 143.549 79.376 143.208 80.912C142.952 82.3627 142.824 83.216 142.824 83.472C142.909 83.6427 143.037 83.8133 143.208 83.984C145.853 84.1547 148.029 84.2827 149.736 84.368C151.443 84.4533 153.619 84.4107 156.264 84.24C158.909 83.984 161.469 83.5573 163.944 82.96C166.419 82.3627 168.083 82.1067 168.936 82.192C169.789 82.192 170.685 82.0213 171.624 81.68C172.563 81.3387 173.331 80.9973 173.928 80.656C174.611 80.2293 175.421 79.7173 176.36 79.12L176.872 79.376L176.232 80.016L173.8 81.552L172.392 82.704C171.709 82.96 171.112 83.216 170.6 83.472C170.173 83.6427 169.533 84.0693 168.68 84.752C167.912 85.4347 167.229 85.8613 166.632 86.032L166.12 86.544C165.181 86.9707 164.499 87.3547 164.072 87.696C163.645 87.952 163.219 88.08 162.792 88.08C162.451 88.08 162.109 88.2507 161.768 88.592C161.427 88.848 161.043 88.976 160.616 88.976C160.275 88.8907 159.848 89.0187 159.336 89.36C158.824 89.7013 158.44 89.872 158.184 89.872C157.928 89.7867 157.757 89.7867 157.672 89.872C157.672 89.9573 157.501 90.1707 157.16 90.512C157.16 90.8533 157.16 91.1093 157.16 91.28C157.16 91.4507 157.373 91.7493 157.8 92.176C158.227 92.5173 158.44 93.2427 158.44 94.352C158.44 95.4613 158.312 96.528 158.056 97.552C157.8 98.576 157.288 99.5147 156.52 100.368C155.837 101.136 154.771 102.629 153.32 104.848C153.661 105.36 154.088 105.787 154.6 106.128L156.008 106.256L156.52 106.64C156.691 106.64 156.819 106.597 156.904 106.512C157.075 106.512 157.373 106.597 157.8 106.768C158.312 107.024 158.867 107.365 159.464 107.792C160.061 108.219 160.787 108.56 161.64 108.816C162.493 109.072 163.347 109.2 164.2 109.2C165.139 109.2 165.821 109.157 166.248 109.072C166.675 109.072 167.144 108.944 167.656 108.688V109.2C166.547 109.371 165.736 109.584 165.224 109.84C164.797 110.096 164.413 110.181 164.072 110.096C163.731 110.011 163.389 110.096 163.048 110.352C162.707 110.693 162.323 110.821 161.896 110.736C161.469 110.651 161.128 110.693 160.872 110.864C160.616 111.035 160.275 111.12 159.848 111.12C159.507 111.205 158.824 111.248 157.8 111.248L157.288 111.888L156.136 111.504L155.496 112.144C155.069 112.229 154.685 112.229 154.344 112.144C154.003 112.144 153.661 112.229 153.32 112.4C152.979 112.571 152.509 112.613 151.912 112.528C151.4 112.528 150.845 112.613 150.248 112.784C149.651 113.04 148.968 113.083 148.2 112.912C147.432 112.741 146.493 112.656 145.384 112.656C144.36 112.656 143.592 112.741 143.08 112.912C142.653 113.083 140.392 113.893 136.296 115.344C131.517 116.795 130.323 116.709 132.712 115.088C135.187 113.552 137.021 112.4 138.216 111.632ZM149.608 44.048C149.096 44.048 148.712 44.0053 148.456 43.92C148.285 43.7493 148.115 43.7493 147.944 43.92C147.859 44.0053 147.688 44.0907 147.432 44.176C147.261 44.688 147.176 45.0293 147.176 45.2C147.176 45.3707 147.091 45.5413 146.92 45.712C146.749 45.7973 146.493 46.1387 146.152 46.736C145.811 47.3333 145.64 47.888 145.64 48.4C145.64 48.8267 145.683 49.168 145.768 49.424C145.853 49.68 146.024 49.9787 146.28 50.32C147.475 50.4907 148.755 50.6187 150.12 50.704C151.485 50.704 152.808 50.7893 154.088 50.96C155.368 51.1307 156.563 51.216 157.672 51.216C158.867 51.216 159.635 51.1307 159.976 50.96C159.635 48.656 158.867 46.3947 157.672 44.176C157.16 44.0907 156.733 44.0907 156.392 44.176C156.136 44.2613 155.795 44.2613 155.368 44.176C155.027 44.0907 154.515 44.0907 153.832 44.176C153.235 44.176 152.637 44.1333 152.04 44.048C151.528 43.9627 150.717 43.9627 149.608 44.048ZM160.488 59.92C158.781 60.0907 156.349 60.176 153.192 60.176C150.035 60.176 147.773 60.176 146.408 60.176C145.128 60.176 144.104 60.2187 143.336 60.304C143.251 61.7547 143.208 63.12 143.208 64.4C143.72 64.5707 145.512 64.7413 148.584 64.912C151.656 64.9973 154.216 64.9547 156.264 64.784C158.312 64.528 159.421 64.3147 159.592 64.144C160.531 63.0347 160.872 61.712 160.616 60.176L160.488 59.92ZM150.888 92.688C150.632 92.688 150.419 92.7733 150.248 92.944C150.077 93.0293 149.395 93.2 148.2 93.456C147.091 93.712 146.195 93.84 145.512 93.84C144.915 93.7547 144.36 93.7973 143.848 93.968C143.421 94.1387 142.909 94.2667 142.312 94.352C141.8 94.4373 141.459 94.5653 141.288 94.736C141.203 94.9067 141.032 95.0773 140.776 95.248L140.136 97.296C141.843 99.1733 143.848 100.496 146.152 101.264L146.792 100.88C148.243 98.064 149.309 96.1867 149.992 95.248C150.76 94.3093 151.144 93.7547 151.144 93.584C151.144 93.328 151.101 93.072 151.016 92.816L150.888 92.688ZM195.688 16.4C196.2 16.4853 196.669 16.528 197.096 16.528C197.523 16.4427 197.949 16.6987 198.376 17.296C198.888 17.8933 199.827 18.5333 201.192 19.216C202.643 19.8987 203.965 20.7093 205.16 21.648C206.355 22.5867 207.165 23.2267 207.592 23.568C208.104 23.9093 208.744 24.208 209.512 24.464C209.768 25.4027 210.024 26.0853 210.28 26.512C210.536 26.8533 210.579 27.3227 210.408 27.92C210.237 28.432 209.896 29.5413 209.384 31.248L208.36 31.504C207.763 31.3333 207.08 31.1627 206.312 30.992L206.056 31.76C204.349 33.04 202.813 33.0827 201.448 31.888C200.936 29.4987 200.637 27.792 200.552 26.768C200.467 25.744 200.253 24.976 199.912 24.464C199.571 23.952 199.144 23.1413 198.632 22.032L197.096 20.88C196.499 19.9413 195.901 18.7893 195.304 17.424L195.688 16.4ZM223.464 18.064C223.635 18.064 223.805 18.064 223.976 18.064C224.232 17.9787 224.531 18.064 224.872 18.32C225.299 18.576 226.109 18.8747 227.304 19.216C228.499 19.472 229.907 19.6 231.528 19.6C233.149 19.6 234.515 19.728 235.624 19.984C236.819 20.1547 238.269 20.24 239.976 20.24C241.683 20.1547 246.291 20.4533 253.8 21.136C261.309 21.8187 265.491 22.5013 266.344 23.184C267.283 23.7813 268.136 24.208 268.904 24.464C269.672 24.72 270.269 25.0187 270.696 25.36C271.123 25.616 271.72 25.9147 272.488 26.256L274.024 28.304C273.853 28.56 273.64 28.8587 273.384 29.2C273.213 29.5413 272.915 30.096 272.488 30.864C272.061 31.5467 271.976 32.3573 272.232 33.296C272.488 34.1493 272.573 34.7467 272.488 35.088C272.488 35.4293 272.616 35.8987 272.872 36.496C273.128 37.0933 273.683 40.464 274.536 46.608C275.475 52.6667 276.029 57.9573 276.2 62.48C276.456 67.0027 276.456 71.0987 276.2 74.768C275.944 78.4373 275.517 81.808 274.92 84.88C274.408 87.952 273.853 90.384 273.256 92.176C272.659 93.968 271.891 95.248 270.952 96.016C270.013 96.784 269.715 97.9787 270.056 99.6C270.397 101.136 270.397 102.075 270.056 102.416C269.715 102.672 269.416 103.141 269.16 103.824C267.283 105.275 265.619 105.232 264.168 103.696C263.741 102.928 263.443 102.331 263.272 101.904C263.101 101.477 262.845 101.136 262.504 100.88C262.163 100.539 261.821 100.112 261.48 99.6C261.139 99.088 260.499 98.192 259.56 96.912L259.048 97.424V94.992C259.56 94.992 259.944 94.992 260.2 94.992C260.541 94.992 260.883 94.9067 261.224 94.736C261.651 94.5653 261.907 94.5653 261.992 94.736C262.163 94.9067 262.504 95.12 263.016 95.376C263.869 94.5227 264.467 93.968 264.808 93.712C265.149 93.456 265.277 93.2 265.192 92.944C265.107 92.688 265.192 92.2613 265.448 91.664C265.704 90.9813 265.917 90 266.088 88.72C266.259 87.3547 266.429 85.776 266.6 83.984C266.771 82.1067 266.813 80.4853 266.728 79.12C266.643 77.6693 266.685 76.56 266.856 75.792C267.027 75.024 267.069 74.2133 266.984 73.36C266.984 72.5067 267.069 71.4827 267.24 70.288C267.496 69.008 267.539 67.088 267.368 64.528C267.197 61.8827 266.941 58.8107 266.6 55.312C266.259 51.728 265.789 47.9307 265.192 43.92C264.68 39.824 264.168 37.136 263.656 35.856C263.144 34.576 262.632 32.8267 262.12 30.608C260.157 30.1813 258.579 29.9253 257.384 29.84C256.275 29.7547 254.696 29.712 252.648 29.712C250.6 29.712 247.187 29.3707 242.408 28.688C237.715 28.0053 234.472 27.408 232.68 26.896L232.168 26.256C230.632 26.1707 229.181 25.744 227.816 24.976C227.048 24.0373 226.451 23.0987 226.024 22.16L224.488 21.008L223.72 19.472L222.824 19.088L223.464 18.064ZM223.592 31.76C224.189 31.5893 224.659 31.5467 225 31.632C225.341 31.7173 225.981 31.9733 226.92 32.4C227.859 32.7413 228.712 33.1253 229.48 33.552C230.248 33.9787 230.717 34.192 230.888 34.192C231.571 35.0453 232.125 35.6427 232.552 35.984C232.979 36.24 233.192 36.624 233.192 37.136C233.192 37.5627 233.277 38.2027 233.448 39.056L231.528 41.744L229.352 43.664L230.12 44.432C233.192 45.968 235.411 46.992 236.776 47.504C238.227 48.016 239.507 48.656 240.616 49.424C241.725 50.1067 242.579 50.6187 243.176 50.96C243.859 51.3013 244.797 51.856 245.992 52.624C246.504 53.392 246.931 53.9467 247.272 54.288C247.699 54.6293 247.912 54.9707 247.912 55.312C247.912 55.568 247.827 55.824 247.656 56.08C247.571 56.336 247.528 56.7627 247.528 57.36L243.944 59.408L242.792 60.944C242.621 60.944 242.408 61.0293 242.152 61.2C241.896 61.2853 241.341 61.6693 240.488 62.352C239.72 63.0347 238.355 64.0587 236.392 65.424L236.136 66.32C236.989 67.1733 239.805 68.8373 244.584 71.312C249.363 73.7867 251.88 75.152 252.136 75.408C252.392 75.664 252.691 75.92 253.032 76.176L252.52 76.944C252.008 77.1147 251.581 77.1573 251.24 77.072C250.984 76.9867 250.6 77.1147 250.088 77.456C249.661 77.7973 249.192 77.9253 248.68 77.84C248.168 77.7547 247.571 77.8827 246.888 78.224C246.291 78.48 244.371 78.096 241.128 77.072C237.885 75.9627 235.752 75.4507 234.728 75.536C233.789 75.536 232.765 75.3227 231.656 74.896C230.632 74.384 228.968 73.6587 226.664 72.72C226.067 73.0613 225.512 73.36 225 73.616C224.488 73.7867 223.677 74.3413 222.568 75.28C221.459 76.1333 220.52 76.688 219.752 76.944C219.069 77.1147 218.472 77.328 217.96 77.584C217.533 77.84 216.979 78.0107 216.296 78.096C215.699 78.096 215.059 78.2667 214.376 78.608C213.693 78.864 213.053 78.992 212.456 78.992C211.859 78.9067 210.749 78.9067 209.128 78.992L208.744 78.736L209.384 77.968C212.371 76.2613 215.229 74.2987 217.96 72.08L222.056 68.112C221.715 67.6853 221.544 67.344 221.544 67.088C221.544 66.832 221.416 66.5333 221.16 66.192C220.989 65.8507 220.819 65.4667 220.648 65.04C220.477 64.528 220.051 63.7173 219.368 62.608L219.624 62.224L218.984 61.2L217.192 59.408L218.216 57.744C218.643 57.8293 218.941 57.9147 219.112 58C219.368 58 219.923 58.0427 220.776 58.128C221.629 58.2133 222.525 58.6827 223.464 59.536C224.488 60.304 225.256 60.816 225.768 61.072C226.365 61.2427 227.048 61.3707 227.816 61.456L230.632 58L230.888 57.872C230.888 57.5307 231.059 57.1893 231.4 56.848C231.741 56.5067 231.955 56.1227 232.04 55.696C232.125 55.2693 232.339 54.5867 232.68 53.648L227.304 49.936L226.92 49.04L225 47.76C223.037 49.2107 221.203 50.704 219.496 52.24C218.131 54.032 216.68 55.6107 215.144 56.976L211.944 57.872L211.688 57.232C211.859 56.8053 211.987 56.5493 212.072 56.464C212.243 56.2933 212.541 55.952 212.968 55.44C213.48 54.8427 213.779 54.2453 213.864 53.648C214.035 52.9653 214.333 52.4533 214.76 52.112C215.272 51.7707 216.765 49.168 219.24 44.304C221.8 39.44 223.165 36.624 223.336 35.856C223.507 35.088 223.464 34.5333 223.208 34.192C222.952 33.8507 222.824 33.5093 222.824 33.168C222.824 32.7413 222.867 32.4853 222.952 32.4C223.037 32.2293 223.251 32.016 223.592 31.76ZM188.52 42.64C190.995 45.456 192.787 47.3333 193.896 48.272C195.005 49.2107 195.773 50.1493 196.2 51.088C196.712 51.9413 197.224 52.624 197.736 53.136C198.248 53.648 198.589 54.1173 198.76 54.544C198.931 54.8853 199.272 55.4827 199.784 56.336C199.357 56.848 199.059 57.232 198.888 57.488C198.717 57.744 198.632 58.384 198.632 59.408C198.717 60.432 198.589 62.4373 198.248 65.424C197.907 68.4107 197.864 72.08 198.12 76.432C198.461 80.6987 198.333 83.088 197.736 83.6C197.224 84.0267 196.883 85.1787 196.712 87.056C196.541 88.9333 196.456 91.536 196.456 94.864L195.688 94.992C195.432 94.6507 195.219 94.3093 195.048 93.968C194.963 93.6267 194.707 92.432 194.28 90.384C193.939 88.336 193.64 85.904 193.384 83.088C193.128 80.1867 192.787 77.2853 192.36 74.384C191.933 71.3973 191.549 69.0933 191.208 67.472C190.952 65.7653 190.781 64.4 190.696 63.376C190.696 62.352 190.483 61.2853 190.056 60.176C189.715 59.0667 189.544 58.0427 189.544 57.104C189.544 56.1653 189.459 55.3973 189.288 54.8C189.203 54.2027 189.16 53.52 189.16 52.752C189.245 51.984 189.16 51.472 188.904 51.216C188.733 50.8747 188.563 49.8507 188.392 48.144C188.221 46.352 187.88 45.2427 187.368 44.816C186.856 44.304 186.6 44.0053 186.6 43.92C186.6 43.7493 186.6 43.5787 186.6 43.408L188.136 42.64H188.52ZM222.184 78.608C222.696 78.608 223.08 78.5653 223.336 78.48C223.677 78.3093 224.147 78.352 224.744 78.608C225.427 78.864 226.451 79.1627 227.816 79.504C229.181 79.76 231.059 79.9733 233.448 80.144C235.923 80.3147 237.928 80.528 239.464 80.784C241 80.9547 241.981 81.2533 242.408 81.68C242.92 82.0213 243.517 82.32 244.2 82.576C244.968 82.832 246.077 83.3867 247.528 84.24C247.784 84.6667 248.04 84.9227 248.296 85.008C248.552 85.0933 248.637 85.3493 248.552 85.776C248.552 86.1173 248.595 86.8 248.68 87.824C247.059 88.336 245.693 89.104 244.584 90.128L242.664 93.072C241.299 94.0107 240.019 94.608 238.824 94.864C237.117 96.2293 236.093 97.808 235.752 99.6C235.667 99.6853 235.581 99.728 235.496 99.728C235.411 99.6427 235.24 99.728 234.984 99.984C234.813 100.24 234.472 100.411 233.96 100.496C233.533 100.496 233.064 100.411 232.552 100.24C232.125 99.984 231.699 99.9413 231.272 100.112C230.931 100.197 230.589 100.155 230.248 99.984C229.992 99.8133 229.608 99.5147 229.096 99.088L228.328 98.192L224.488 95.76L225 94.992L224.488 94.48L225.128 93.968C225.725 93.7973 226.152 93.7973 226.408 93.968C226.749 94.0533 227.091 94.1387 227.432 94.224C227.773 94.224 228.499 94.224 229.608 94.224C230.803 94.1387 231.997 93.968 233.192 93.712C233.704 93.0293 234.131 92.56 234.472 92.304C234.813 92.048 235.069 91.4933 235.24 90.64C235.411 89.7013 235.411 89.1467 235.24 88.976C235.069 88.8053 234.941 88.6347 234.856 88.464C231.016 88.5493 227.773 87.2267 225.128 84.496C224.701 83.8133 224.275 83.0027 223.848 82.064L222.056 81.424C221.373 81.0827 221.117 80.4 221.288 79.376L222.184 78.608ZM216.68 81.68L217.448 82.32L218.984 83.088C219.24 83.4293 219.624 84.112 220.136 85.136C220.648 86.16 221.075 86.928 221.416 87.44C221.843 87.8667 222.056 88.4213 222.056 89.104C222.141 89.7867 222.397 91.024 222.824 92.816C223.336 94.5227 223.549 96.1013 223.464 97.552C223.464 99.0027 223.464 99.9413 223.464 100.368C223.549 100.795 223.677 101.349 223.848 102.032L222.952 103.056L221.544 102.544C221.117 101.776 220.563 100.88 219.88 99.856C219.197 98.7467 218.728 97.7227 218.472 96.784C218.216 95.8453 217.704 94.3947 216.936 92.432C216.253 90.384 215.528 88.6347 214.76 87.184C214.077 85.648 213.309 84.1973 212.456 82.832L211.56 82.576L210.92 81.808L211.688 80.912L213.352 80.272L216.68 81.68Z" fill="#00AA44"/>
</svg>
